<svg class="svg-icon" style="width: 1em;height: 1em;vertical-align: middle;fill: currentColor;overflow: hidden;" viewBox="0 0 1024 1024" version="1.1" xmlns="http://www.w3.org/2000/svg"><path d="M917.333 394.667H106.667a32 32 0 0 1 0-64h810.666a32 32 0 0 1 0 64z m0 298.666H106.667a32 32 0 0 1 0-64h810.666a32 32 0 0 1 0 64z"  /><path d="M106.667 394.667a32 32 0 0 1-22.614-54.614l241.28-241.28A32 32 0 0 1 370.56 144L129.28 385.28a32 32 0 0 1-22.613 9.387z m569.386 539.946A32 32 0 0 1 653.44 880l241.28-241.28a32 32 0 1 1 45.227 45.227l-241.28 241.28a32 32 0 0 1-22.614 9.386z"  /><path d="M917.333 394.667H106.667a32 32 0 0 1 0-64h810.666a32 32 0 0 1 0 64z m0 298.666H106.667a32 32 0 0 1 0-64h810.666a32 32 0 0 1 0 64z"  /><path d="M106.667 394.667a32 32 0 0 1-22.614-54.614l241.28-241.28A32 32 0 0 1 370.56 144L129.28 385.28a32 32 0 0 1-22.613 9.387z m569.386 539.946A32 32 0 0 1 653.44 880l241.28-241.28a32 32 0 1 1 45.227 45.227l-241.28 241.28a32 32 0 0 1-22.614 9.386z"  /></svg>